<?xml version="1.0" standalone="no"?><!DOCTYPE svg PUBLIC "-//W3C//DTD SVG 1.1//EN" "http://www.w3.org/Graphics/SVG/1.1/DTD/svg11.dtd"><svg class="icon" width="200px" height="200.00px" viewBox="0 0 1024 1024" version="1.1" xmlns="http://www.w3.org/2000/svg"><path d="M885.144371 346.0096c13.70112-1.2544 30.70464-3.03616 34.56512-4.4544 0 0-6.03136-12.1344-11.89888-19.54304-7.48032-9.4464-13.90592-18.65728-13.90592-18.65728 1.06496 0 18.90816-2.89792 19.968-2.95424 32.7424-1.67424 58.99776-28.9792 58.99776-62.11072 0-34.2016-27.98592-62.19264-62.18752-62.19264h-31.09888V165.7344a113.69984 113.69984 0 0 0-114.0224-114.02752c-52.864 0-96.40448 35.24608-109.8752 82.92864h-14.5152c-24.83712 0-47.2064 11.06432-62.43328 28.4928-1.18272 1.3568-4.39808 5.43232-6.2208 9.728-1.96096 4.64896-2.82112 9.22624-3.39968 10.20416 0 0-13.312 1.94048-21.13024 3.7632-10.30656 2.40128-24.31488 8.97024-24.31488 8.97024-1.05984 10.51136 0.96256 21.69856 3.13344 30.01856a303.34464 303.34464 0 0 1 103.54176-18.10944c106.74176 0 200.61184 55.05024 254.7968 138.30656z" fill="#FFBC68" /><path d="M859.795251 710.26176a306.98496 306.98496 0 0 1-30.65856 30.68416l111.38048 111.42656a21.69856 21.69856 0 0 0 30.68928-30.68416l-111.4112-111.42656z" fill="#ACB1B4" /><path d="M534.910771 965.13024h399.53408v45.7728h-399.53408zM630.347571 294.50752a21.68832 21.68832 0 0 0-21.69856 21.70368 21.68832 21.68832 0 0 0 21.69856 21.69856c95.87712 0 173.60384 77.73696 173.60384 173.60384a21.68832 21.68832 0 0 0 21.69856 21.70368 21.68832 21.68832 0 0 0 21.69856-21.70368c0.00512-119.81824-97.18272-217.00608-217.00096-217.00608z" fill="#3C3C3C" /><path d="M1001.885491 790.99392l-115.80928-115.85536c30.30016-47.2576 48.08192-103.31136 48.08192-163.62496 0-61.05088-18.0224-117.888-49.00864-165.50912-54.18496-83.2512-148.05504-138.30144-254.7968-138.30144a303.34464 303.34464 0 0 0-103.54176 18.10944c-116.8128 42.3424-200.27392 154.2656-200.27392 285.70112 0 167.79264 136.0128 303.81056 303.81056 303.81056 60.30848 0 116.38272-17.80224 163.64544-48.10752l115.83488 115.83488c25.43104 25.43104 66.62656 25.43104 92.05248 0 25.43104-25.4208 25.43616-66.64192 0.00512-92.0576z m-371.53792-19.06688c-143.81056 0-260.41344-116.59264-260.41344-260.40832 0-143.81056 116.60288-260.40832 260.41344-260.40832 143.80544 0 260.40832 116.59776 260.40832 260.40832 0.00512 143.81056-116.60288 260.40832-260.40832 260.40832z m340.85376 80.44544a21.69856 21.69856 0 0 1-30.68416 0l-111.38048-111.42656a306.44224 306.44224 0 0 0 30.65856-30.68416l111.4112 111.42656a21.69344 21.69344 0 0 1-0.00512 30.68416z" fill="#3C3C3C" /><path d="M569.117491 183.06048c0.57856-0.97792 1.43872-5.5552 3.39968-10.20416 1.8176-4.3008 5.03296-8.37632 6.2208-9.728 15.232-17.4336 37.60128-28.4928 62.43328-28.4928h14.5152c13.47072-47.68256 57.0112-82.92864 109.8752-82.92864a113.69984 113.69984 0 0 1 114.0224 114.02752v10.36288h31.09888c34.20672 0 62.18752 27.99104 62.18752 62.19264 0 33.13664-26.26048 60.43648-58.99776 62.11072-1.05984 0.05632-18.90304 2.95424-19.968 2.95424 0 0 6.4256 9.21088 13.90592 18.65728 5.86752 7.40864 11.89888 19.54304 11.89888 19.54304s6.16448-0.67584 9.18528-1.21856c48.40448-8.66816 85.44256-51.24608 85.44256-102.04672 0-54.93248-42.50112-99.51232-96.39936-102.62016C903.422771 64.14336 841.235251 10.24 765.561651 10.24c-60.12416 0-111.95392 34.20672-137.86624 83.96288-36.29056 3.63008-67.98848 23.13728-88.09984 51.52256-0.49152 0.6912-8.11008 11.57632-11.58656 24.88832-3.28704 12.59008-4.34176 25.18016-4.34176 25.18016s14.00832-6.56896 24.31488-8.97024c7.82848-1.82272 21.13536-3.7632 21.13536-3.7632zM100.448051 728.59136c0 68.79232 53.16096 115.57376 132.08576 115.57376l194.66752-0.01024c13.4144 0 24.46848-11.06944 22.8864-24.51456 0-13.44-11.04384-24.51456-24.46336-24.51456l-193.08544-0.49664c-40.25344 0-82.56-33.53088-82.56-82.55488v-181.61664c0-13.27616-19.328-33.024-33.01888-33.024l-32.83968-1.3056 273.62304-286.12096 30.3616 31.39072c9.472 9.48736 25.25696 9.48736 34.72896 0 9.472-9.49248 9.472-25.30304 0-34.79552l-47.72864-48.78336c-4.736-4.74112-11.04896-7.1168-17.36192-7.1168s-12.62592 2.37056-17.36192 7.1168L8.103731 500.992c-6.31296 7.1168-10.38336 19.82976-6.72256 29.47072 3.6608 8.832 6.99392 16.512 16.512 16.512h82.55488v181.61664zM83.787571 965.13024h400.7936v45.7728h-400.7936z" fill="#3C3C3C" /></svg>